<svg id="Capa_1" enable-background="new 0 0 512 512" height="512" viewBox="0 0 512 512" width="512" xmlns="http://www.w3.org/2000/svg"><g><circle cx="256" cy="212.366" fill="#544f57" r="212.366"/><path d="m430.408 333.539c23.921-34.366 37.958-76.127 37.958-121.173 0-117.286-95.079-212.366-212.366-212.366-4.317 0-8.6.144-12.854.398 111.3 6.647 199.513 98.999 199.513 211.968 0 32.836-7.459 63.925-20.768 91.676-7.353 15.332-23.649 24.288-40.558 22.495-36-3.818-79.056-6.04-125.333-6.04-69.878 0-132.429 5.063-174.408 13.042 15.271 21.938 34.569 40.858 56.831 55.688 34.365 3.333 74.583 5.251 117.577 5.251 31.254 0 61.027-1.018 88.165-2.851-29.521 18.789-63.989 30.497-101.019 32.708 4.253.254 8.536.398 12.854.398 118.186 0 174.296-91.095 174.408-91.194z" fill="#454045"/><g><path d="m256 353.682c-77.922 0-141.316-63.394-141.316-141.316s63.394-141.316 141.316-141.316 141.316 63.394 141.316 141.316-63.395 141.316-141.316 141.316zm0-267.179c-69.401 0-125.863 56.462-125.863 125.863 0 69.402 56.462 125.864 125.863 125.864s125.863-56.462 125.863-125.864c0-69.401-56.462-125.863-125.863-125.863z" fill="#454045"/></g><path d="m27.139 375.267v99.743c0 20.429 102.465 36.99 228.861 36.99s228.861-16.561 228.861-36.99v-99.743z" fill="#544f57"/><path d="m457.722 375.267v99.743c0 19.692-95.214 35.788-215.291 36.924 4.491.042 9.013.066 13.57.066 126.396 0 228.861-16.561 228.861-36.99v-99.743z" fill="#454045"/><ellipse cx="256" cy="375.267" fill="#756e78" rx="228.861" ry="36.99"/><path d="m256 338.277c-7.251 0-14.419.057-21.498.164 116.313 1.752 207.363 17.569 207.363 36.826s-91.05 35.075-207.363 36.826c7.079.107 14.247.164 21.498.164 126.396 0 228.861-16.561 228.861-36.99s-102.465-36.99-228.861-36.99z" fill="#665e66"/></g></svg>