<svg id="Capa_1" enable-background="new 0 0 512.005 512.005" height="512" viewBox="0 0 512.005 512.005" width="512" xmlns="http://www.w3.org/2000/svg"><g><path d="m7.502 7.503 35.97-.005 142.17 350.9c6.84 16.7 24.3 26.48 42.12 23.59l46.88-7.59 41.95-6.79 41.94-6.79 107.27-17.36c20.29-3.28 38.7 12.38 38.7 32.94v94.74c0 19.98-17.46 35.49-37.3 33.13l-108.67-12.92-41.94-4.99-41.95-4.99-17.4-2.07c-63.91-7.6-117.82-51.12-138.73-111.99l-111.01-327.29z" fill="#ffe4c1"/><path d="m166.356 358.398c6.84 16.7 24.3 26.48 42.12 23.59l3.834-.621c-11.766-2.889-21.851-11.21-26.668-22.969l-142.17-350.9-19.285.003z" fill="#f1d0a5"/><path d="m465.802 343.458-4.951.801c13.871 3.896 24.364 16.618 24.364 32.139v94.74c0 15.683-10.759 28.607-24.981 32.302l6.967.828c19.84 2.36 37.3-13.15 37.3-33.13v-94.74c.001-20.56-18.409-36.22-38.699-32.94z" fill="#f1d0a5"/><circle cx="441.507" cy="423.477" fill="#544f57" r="16.971"/><path d="m316.592 367.608v118.75l-41.95-4.99v-106.97z" fill="#da4a54"/><path d="m358.532 360.819v130.529l-41.94-4.99v-118.75z" fill="#5986cb"/><path d="m72.316 231.107 51.248-25.929-12.389-30.579-50.204 23.061z" fill="#da4a54"/><path d="m94.914 182.068 12.644 31.208 16.006-8.098-12.39-30.579z" fill="#d82e3d"/><path d="m82.969 262.516 52.278-28.501-11.683-28.837-51.248 25.929z" fill="#5986cb"/><path d="m107.558 213.276 11.892 29.351 15.797-8.612-11.683-28.837z" fill="#4278c3"/><g><path d="m417.038 423.481c0 13.492 10.978 24.47 24.471 24.47s24.471-10.978 24.471-24.47c0-13.493-10.978-24.471-24.471-24.471s-24.471 10.978-24.471 24.471zm33.941 0c0 5.222-4.249 9.47-9.471 9.47s-9.471-4.248-9.471-9.47 4.249-9.471 9.471-9.471 9.471 4.249 9.471 9.471z"/><path d="m504.503 419.494c4.143 0 7.5-3.357 7.5-7.5v-35.592c0-11.998-5.239-23.339-14.375-31.116-9.138-7.78-21.177-11.144-33.023-9.227-55.514 8.985-208.781 33.793-238.042 38.529-14.464 2.341-28.43-5.48-33.968-19.003-4.259-10.512-69.991-172.75-74.468-183.799l-67.702-167.101c-1.556-3.838-5.927-5.69-9.768-4.135-3.839 1.556-5.69 5.929-4.135 9.768l65.011 160.459-36.132 16.597-50.795-149.761c-1.33-3.922-5.586-6.024-9.512-4.693-3.923 1.331-6.023 5.589-4.693 9.512 22.641 66.753 72.326 213.237 95.02 280.145 1.06 3.124 3.977 5.093 7.102 5.093.799 0 1.611-.129 2.41-.399 3.923-1.33 6.023-5.589 4.693-9.512l-17.526-51.672 39.356-21.457 47.248 116.616c8.21 20.043 28.881 31.62 50.259 28.15l38.182-6.18v39.935c0 4.143 3.357 7.5 7.5 7.5s7.5-3.357 7.5-7.5v-42.363l26.949-4.362v101.491l-26.949-3.205v-21.574c0-4.143-3.357-7.5-7.5-7.5s-7.5 3.357-7.5 7.5v19.79l-9.015-1.072c-29.954-3.563-58.193-15.46-81.665-34.407-23.471-18.947-41.057-44.042-50.848-72.545l-6.339-18.686c-1.33-3.922-5.591-6.021-9.512-4.693-3.923 1.331-6.024 5.59-4.693 9.512l6.349 18.713c10.718 31.203 29.951 58.648 55.621 79.371 25.67 20.722 56.555 33.734 89.315 37.63 17.755 2.112 189.336 22.518 209.96 24.97 11.472 1.367 23.148-2.205 31.954-10.024 8.727-7.75 13.731-18.887 13.731-30.553v-29.161c0-4.143-3.357-7.5-7.5-7.5s-7.5 3.357-7.5 7.5v29.161c0 7.383-3.168 14.431-8.692 19.337-5.522 4.904-12.898 7.21-20.222 6.346l-102.056-12.137v-117.481l100.967-16.342c7.5-1.215 15.121.916 20.905 5.841 5.781 4.922 9.098 12.101 9.098 19.694v35.592c0 4.142 3.358 7.5 7.5 7.5zm-434.257-217.837 36.927-16.962 1.771 4.371 5.079 12.538c-13.288 6.723-24.184 12.236-37.38 18.912-.609-1.795-5.882-17.343-6.397-18.859zm16.963 50.01c-.037-.109-4.996-14.731-5.699-16.802l38.165-19.31 6.11 15.08zm263.825 231.237-26.94-3.204v-105.703l26.94-4.361z"/></g></g></svg>