<svg id="Capa_1" enable-background="new 0 0 512.016 512.016" height="512" viewBox="0 0 512.016 512.016" width="512" xmlns="http://www.w3.org/2000/svg"><g><path d="m457.408 296.75c0 22.55-18.29 40.84-40.83 40.84h-308.77c-7.26 0-14.17-1.45-20.47-4.08-6.47-2.7-12.27-6.63-17.15-11.51-9.63-9.63-15.58-22.93-15.58-37.62 0-7.9 1.76-15.7 5.16-22.85l17.54-36.88c2.54-5.36 4.48-10.95 5.79-16.69 1.33-5.86 2.01-11.86 2.01-17.9v-150.11h13.59c14.57 0 25.73 11.93 25.73 25.69 0 2.2-.28 4.46-.89 6.71-1.46 5.41 2.63 10.73 8.23 10.73h53.57c4.7 0 8.51-3.82 8.51-8.52v-26.25c0-22.53 18.26-40.8 40.79-40.8h.02l2.78 114.84c1.22 50.79 35.91 94.63 85.04 107.51l88.71 23.26 15.74 4.13c8.98 2.35 16.59 7.58 21.97 14.55s8.51 15.67 8.51 24.95z" fill="#544f57"/><g><path d="m207.12 18.197c7.254-6.636 16.912-10.686 27.518-10.686h.02l2.78 114.84c1.22 50.79 35.91 94.63 85.04 107.51l88.71 23.26 15.74 4.13c8.98 2.35 16.59 7.58 21.97 14.55s8.51 15.67 8.51 24.95c0 20.008-14.403 36.651-33.395 40.151 8.17-7.469 13.3-18.212 13.3-30.151 0-9.28-3.13-17.98-8.51-24.95s-12.99-12.2-21.97-14.55l-15.74-4.13-88.71-23.26c-49.13-12.88-83.82-56.72-85.04-107.51l-2.599-107.368c-.098-4.043-3.597-7.158-7.624-6.786z" fill="#454045"/></g><path d="m202.676 337.591v18.391c0 4.614-3.741 8.355-8.355 8.355h-98.632c-4.614 0-8.355-3.741-8.355-8.355v-22.474c6.299 2.632 13.218 4.083 20.475 4.083z" fill="#544f57"/><path d="m415.76 337.591v18.391c0 4.614-3.741 8.355-8.355 8.355h-98.633c-4.614 0-8.355-3.741-8.355-8.355v-18.391z" fill="#544f57"/><path d="m431.601 451.713c-118.182 26.023-238.793 25.051-361.566 0l25.65-87.381h98.631l-13.203 29.267 11.093 16.697h110.205l16.156-15.26-9.793-30.704h98.632z" fill="#eaeaea"/><g><path d="m407.408 364.332h-22.905l14.313 50.473c5.428 20.28-7.743 40.861-28.439 44.387-42.247 7.199-84.798 11.015-127.641 11.589 63.603.856 126.572-5.352 188.864-19.068z" fill="#cbcbcb"/></g><path d="m432.277 489.235c-116.279 20.346-246.872 20.361-363.172.044-10.645-1.86-15.721-14.173-9.454-22.977l10.384-14.589c122.772 25.051 243.384 26.023 361.566 0l10.217 14.667c6.139 8.814 1.04 21.003-9.541 22.855z" fill="#bebebe"/><g><path d="m441.817 466.38-10.217-14.667c-6.63 1.46-13.268 2.822-19.914 4.112l7.352 10.555c6.14 8.814 1.04 21.003-9.541 22.855-54.633 9.559-112.426 14.629-170.411 15.212 65.577.67 131.404-4.401 193.19-15.212 10.582-1.852 15.681-14.041 9.541-22.855z" fill="#aaa"/></g><path d="m124.017 185.034 16.988-25.118 26.822 12.635v83.454z" fill="#dd636e"/><path d="m457.408 296.75c0 22.55-18.29 40.84-40.83 40.84h-15.36l-19.93-28.08c-3.05-4.31-4.65-9.21-4.89-14.14-.42-8.27 3.01-16.58 9.9-22.14l24.89-20.11 15.74 4.13c8.98 2.35 16.59 7.58 21.97 14.55s8.51 15.67 8.51 24.95z" fill="#dd636e"/><path d="m406.833 267.25c31.183 8.16 41.1 47.787 17.18 69.651h.001c19.138-3.526 33.393-20.318 33.393-40.151 0-9.28-3.13-17.98-8.51-24.95-12.007-15.556-27.511-14.986-37.71-18.68l-14.269 11.529z" fill="#da4a54"/><path d="m401.218 337.59h-293.41c-7.26 0-14.17-1.45-20.47-4.08-6.47-2.7-12.27-6.63-17.15-11.51-9.63-9.63-15.58-22.93-15.58-37.62 0-7.9 1.76-15.7 5.16-22.85l17.54-36.88c2.54-5.36 4.48-10.95 5.79-16.69l6.2 26.15c6.73 28.38 28.43 50.8 56.57 58.45 3.4.93 6.86 1.63 10.36 2.09 3.49.47 7.01.7 10.54.7h209.59l.04.02c.24 4.93 1.84 9.83 4.89 14.14z" fill="#da4a54"/><g><path d="m134.792 155.705-16.988 25.118c-1.652 2.444-1.719 5.63-.169 8.141l43.81 70.971c3.961 6.417 13.882 3.586 13.882-3.939v-83.455c0-2.904-1.677-5.547-4.304-6.785l-26.821-12.634c-3.348-1.578-7.338-.478-9.41 2.583zm25.535 73.862-27.381-44.357 10.674-15.782 16.707 7.87z"/><path d="m140.236 114.417h-16.219c-4.143 0-7.5 3.358-7.5 7.5s3.357 7.5 7.5 7.5h16.219c4.143 0 7.5-3.358 7.5-7.5s-3.358-7.5-7.5-7.5z"/><path d="m162.527 411.731c-2.406-3.371-7.09-4.154-10.462-1.745-3.371 2.406-4.152 7.091-1.745 10.462l7.474 10.468c1.463 2.05 3.77 3.143 6.11 3.143 1.508 0 3.03-.454 4.352-1.397 3.371-2.406 4.152-7.091 1.745-10.462z"/><path d="m130.121 422.199c-2.408-3.371-7.091-4.154-10.462-1.745-3.371 2.407-4.152 7.091-1.745 10.462l7.474 10.467c1.464 2.05 3.77 3.143 6.11 3.143 1.508 0 3.03-.454 4.352-1.397 3.371-2.407 4.152-7.091 1.745-10.462z"/><path d="m339.981 409.986c-3.372-2.407-8.056-1.625-10.462 1.745l-7.474 10.468c-2.407 3.371-1.626 8.056 1.745 10.462 1.321.943 2.844 1.397 4.352 1.397 2.341 0 4.647-1.093 6.11-3.143l7.474-10.468c2.407-3.37 1.626-8.054-1.745-10.461z"/><path d="m372.387 420.454c-3.371-2.407-8.055-1.625-10.462 1.745l-7.474 10.467c-2.407 3.371-1.626 8.055 1.745 10.462 1.321.943 2.844 1.397 4.352 1.397 2.341 0 4.646-1.093 6.11-3.143l7.474-10.467c2.408-3.37 1.626-8.054-1.745-10.461z"/><path d="m438.487 448.467-22.013-79.509c4.097-2.869 6.786-7.616 6.786-12.986v-11.365c23.497-3.266 41.647-23.481 41.647-47.867 0-21.276-14.17-41.023-36.077-46.754l-99.071-25.98c.959-2.202.847-4.824-.532-7.007-2.213-3.502-6.846-4.546-10.347-2.335l-6.417 4.053c-3.981-1.554-7.844-3.339-11.578-5.343l.763-.411c3.647-1.963 5.013-6.512 3.049-10.159-1.963-3.648-6.511-5.011-10.158-3.049l-8.026 4.32c-3.204-2.466-6.267-5.129-9.189-7.968l2.161-1.033c3.737-1.787 5.317-6.265 3.53-10.002-1.786-3.737-6.269-5.316-10.001-3.53l-6.065 2.901c-1.621-2.109-3.163-4.263-4.612-6.464l2.954-.496c4.085-.687 6.841-4.554 6.154-8.639-.688-4.085-4.56-6.838-8.639-6.154l-8.207 1.379c-1.265-2.744-2.415-5.536-3.437-8.375l6.037-.485c4.129-.332 7.208-3.947 6.876-8.076-.331-4.127-3.954-7.203-8.075-6.876l-8.937.717c-.771-3.799-1.338-7.654-1.693-11.556h5.32c4.143 0 7.5-3.358 7.5-7.5s-3.357-7.5-7.5-7.5h-5.942l-.289-11.94h6.231c4.143 0 7.5-3.358 7.5-7.5s-3.357-7.5-7.5-7.5h-6.594l-1.941-80.159c-.098-4.071-3.447-7.319-7.518-7.319-26.627 0-48.29 21.667-48.29 48.3v26.25c0 .563-.453 1.02-1.01 1.02h-53.569c-.335 0-.609-.136-.814-.404-.201-.263-.26-.556-.178-.862.764-2.816 1.151-5.734 1.151-8.673 0-18.301-14.906-33.19-33.229-33.19h-13.59c-4.143 0-7.5 3.358-7.5 7.5v66.983c0 4.142 3.357 7.5 7.5 7.5s7.5-3.358 7.5-7.5v-59.484h6.09c10.052 0 18.229 8.16 18.229 18.19 0 1.613-.211 3.21-.631 4.756-1.308 4.846-.306 9.913 2.749 13.901 3.059 3.993 7.695 6.283 12.723 6.283h53.569c8.828 0 16.01-7.187 16.01-16.02v-26.25c0-15.856 11.137-29.159 26.01-32.495l1.735 71.672h-6.532c-4.143 0-7.5 3.358-7.5 7.5s3.357 7.5 7.5 7.5h6.895l.289 11.94h-7.184c-4.143 0-7.5 3.358-7.5 7.5s3.357 7.5 7.5 7.5h7.76c.343 4.304.888 8.566 1.674 12.765l-4.034.324c-4.129.332-7.208 3.947-6.876 8.076.314 3.925 3.597 6.9 7.468 6.9.2 0 .404-.008.607-.024l6.583-.528c1.058 3.285 2.265 6.518 3.604 9.7l-4.282.719c-4.085.687-6.841 4.554-6.154 8.639.616 3.665 3.791 6.258 7.388 6.258.412 0 .831-.034 1.251-.104l8.817-1.481c2.075 3.553 4.318 7.026 6.769 10.388l-5.498 2.629c-3.737 1.787-5.317 6.265-3.53 10.002 1.287 2.693 3.973 4.266 6.771 4.266 1.085 0 2.188-.237 3.23-.736l8.905-4.259c2.927 3.114 6.004 6.051 9.212 8.815l-2.456 1.322c-3.647 1.963-5.013 6.512-3.049 10.159 1.354 2.517 3.939 3.947 6.61 3.947 1.2 0 2.417-.289 3.548-.897l8.58-4.618c3.781 2.441 7.698 4.673 11.743 6.68l-2.104 1.329c-3.502 2.212-4.547 6.844-2.335 10.346 1.427 2.259 3.86 3.496 6.348 3.496 1.369 0 2.756-.375 3.999-1.16l11.232-7.095c2.058.656 4.13 1.28 6.235 1.831l74.355 19.498c-8.339 8.078-22.19 13.31-25.498 31.236h-90.391c-4.143 0-7.5 3.357-7.5 7.5s3.357 7.5 7.5 7.5h90.972c2.506 9.423 7.382 13.371 16.683 27.24h-278.89c-5.617 0-11.073-1.011-16.248-2.983-.446-.17-.893-.335-1.335-.519h-.001c-5.514-2.303-10.471-5.63-14.732-9.891-8.63-8.629-13.383-20.106-13.383-32.316 0-6.743 1.533-13.53 4.434-19.629l14.889-31.309.569 2.398c7.369 31.074 31.089 55.581 61.889 63.954 18.806 5.147 27.01 2.19 105.168 3.056 4.143 0 7.5-3.357 7.5-7.5s-3.357-7.5-7.5-7.5c-78.606-.752-85.367 1.814-101.221-2.527-25.506-6.934-45.141-27.22-51.24-52.943l-5.812-24.513c1.207-5.864 1.825-11.844 1.825-17.806v-53.14c0-4.142-3.357-7.5-7.5-7.5s-7.5 3.358-7.5 7.5v53.14c0 5.441-.614 10.905-1.823 16.232-1.184 5.19-2.952 10.286-5.251 15.137l-17.539 36.88c-3.851 8.098-5.887 17.113-5.887 26.071 0 16.217 6.313 31.461 17.776 42.924 4.437 4.436 9.455 8.099 14.949 10.955v17.724c0 5.329 2.651 10.041 6.694 12.917l-23.335 79.492-9.653 13.561c-4.441 6.24-5.356 14.194-2.448 21.278 2.913 7.093 9.164 12.116 16.722 13.436 58.376 10.198 120.221 15.36 182.493 15.359 31.158 0 62.429-1.292 93.415-3.894 4.128-.347 7.193-3.974 6.847-8.101-.346-4.129-3.997-7.184-8.101-6.847-91.655 7.693-185.735 3.787-272.073-11.294-3.536-.618-4.973-3.254-5.427-4.358-.451-1.1-1.278-3.972.793-6.882l7.563-10.624c122.13 24.3 241.499 24.326 354.98.076l7.358 10.564c1.428 2.05 1.697 4.548.737 6.853-.965 2.316-2.938 3.894-5.416 4.327-18.91 3.309-38.674 6.135-58.742 8.398-4.116.465-7.076 4.178-6.612 8.294.465 4.116 4.185 7.077 8.294 6.612 20.37-2.299 40.438-5.168 59.646-8.529 7.513-1.314 13.747-6.301 16.678-13.337 2.925-7.024 2.074-14.946-2.276-21.192zm-342.76-91.64c-.015 0-.03-.002-.045-.002-.468-.004-.848-.385-.848-.853v-12.278c8.598 1.872 4.549 1.347 100.343 1.387v10.892c0 .471-.384.854-.854.854zm103.844 14.088c6.167-2.173 10.605-8.042 10.605-14.943v-10.892h82.741v10.893c0 6.681 4.16 12.399 10.022 14.729l7.052 22.111-10.561 9.974h-103.201l-6.573-9.894zm109.282-14.088c-.034 0-.068-.004-.102-.004-.46-.012-.833-.387-.833-.85v-10.892h100.342v10.892c0 .471-.384.854-.855.854zm75.035-61.847c-.311-6.123 2.351-12.075 7.122-15.927l21.939-17.725 12.079 3.168c14.615 3.824 24.879 17.02 24.879 32.244 0 18.384-14.952 33.34-33.33 33.34h-11.486c-15.179-22.693-20.755-25.855-21.203-35.1zm-304.345 150.959 21.755-74.112h81.405l-8.426 18.678c-1.061 2.353-.838 5.085.59 7.234l11.094 16.697c1.391 2.092 3.735 3.35 6.247 3.35h110.205c1.915 0 3.758-.732 5.149-2.048l16.156-15.26c2.096-1.979 2.872-4.984 1.996-7.73l-6.672-20.921h82.661l20.543 74.2c-109.578 22.984-224.787 22.954-342.703-.088z"/></g></g></svg>